<?xml version="1.0" encoding="utf-8"?>
<!-- Generator: Adobe Illustrator 24.3.0, SVG Export Plug-In . SVG Version: 6.00 Build 0)  -->
<svg version="1.1" id="Layer_1" xmlns="http://www.w3.org/2000/svg" xmlns:xlink="http://www.w3.org/1999/xlink" x="0px" y="0px"
	 viewBox="0 0 1080 1080" style="enable-background:new 0 0 1080 1080;" xml:space="preserve">
<style type="text/css">
	.st0{enable-background:new    ;}
	.st1{fill-rule:evenodd;clip-rule:evenodd;fill:none;stroke:#B82026;stroke-width:50;}
	.st2{fill:#B82026;}
	.st3{fill:#B82026;stroke:#B82026;stroke-width:0.75;}
</style>
<g class="st0">
	<path class="st1" d="M1534.7-273.7l-123.9-7.1c-9.5,0-21.4,7.1-23.8,16.7c-102.5,369.3,293.1,803,669.6,731.5
		c9.5-2.4,19.1-11.9,19.1-23.8l2.4-123.9c0-16.7-4.8-19.1-16.7-23.8l-178.7-62c-9.5-2.4-21.4,2.4-26.2,7.1l-62,45.3
		c-109.6-14.3-245.4-162-250.2-274l50-57.2c4.8-4.8,11.9-16.7,9.5-26.2l-45.3-183.5C1556.1-264.2,1551.4-271.3,1534.7-273.7z"/>
</g>
<desc>Created with Sketch.</desc>
<g>
	<g>
		<path class="st2" d="M-426.8,933.6V340.2h-52.4v157.5l-165.8-158.3l-218.2,208.2v385.9H-426.8z M-566.4,293.8v-40.8h226.9v257.4
			l108.7,103.7l-60.3,63.1l-48.4-46.2v389.9h-610.8V631l-48.4,46.2l-60.3-63.1l414.1-395.3L-566.4,293.8L-566.4,293.8z"/>
	</g>
</g>
<g>
	<g>
		<path class="st3" d="M3.9,2021.1v-593.4h-52.4v157.5L-214.3,1427l-218.2,208.2v385.9H3.9z M-135.7,1381.3v-40.8H91.1v257.4
			l108.7,103.7l-60.3,63.1l-48.4-46.2v389.9h-610.8v-389.9l-48.4,46.2l-60.3-63.1l414.1-395.3L-135.7,1381.3L-135.7,1381.3z"/>
	</g>
</g>
<path class="st2" d="M2194.7,346.9V87.6h-177.5v81.7L1910.5,62.7l-43.4,43.4l-231.7,231.7l-10.1,10.1l-104.8,104.8l43.4,43.4
	l61.4-61.4v383.8h569.5V433.7l88.1,88.1l43.4-43.4L2194.7,346.9z M2133.3,757.3h-446.7V373.4l223.9-223.9l168.1,168.1V149h54.7
	V757.3z"/>
<image style="overflow:visible;" width="1080" height="1080" xlink:href="createAccount-icon.png"  transform="matrix(1 0 0 1 1629.1448 1223.1997)">
</image>
<g>
	<path class="st2" d="M915.3,496.8v28.8c0,9-7.3,16.3-16.3,16.3h-66.7v66.7c0,9-7.3,16.3-16.3,16.3h-28.8c-9,0-16.3-7.3-16.3-16.3
		v-66.7h-66.7c-9,0-16.3-7.3-16.3-16.3v-28.8c0-9,7.3-16.3,16.3-16.3h66.7v-66.7c0-9,7.3-16.3,16.3-16.3H816c9,0,16.3,7.3,16.3,16.3
		v66.7H899C908,480.5,915.3,487.8,915.3,496.8z"/>
	<path class="st2" d="M498.5,149c-113.4,0-205.4,91.9-205.4,205.4c0,43.9,13.8,84.6,37.3,118c36.6,52.1,96.9,86.4,165.2,87.3
		c1,0,2,0,2.9,0c113.4,0,205.4-91.9,205.4-205.4C703.9,241,611.9,149,498.5,149z M498.5,495.6c-78,0-141.1-63.2-141.1-141.1
		s63.2-141.1,141.1-141.1s141.1,63.2,141.1,141.1S576.4,495.6,498.5,495.6z"/>
	<path class="st2" d="M832.3,675.7v238.9c0,9-7.3,16.3-16.3,16.3H181c-9,0-16.3-7.3-16.3-16.3v-265c0-10.5,0.9-20.8,2.7-30.9
		c11.1-63.1,55.4-114.7,114.2-136.1c6.9-2.5,14.8,0,18.9,6.1c5.4,7.9,11.2,15.5,17.5,22.7c7.9,9,3.8,23.1-7.7,26.4
		c-48.6,13.9-84.2,58.7-84.2,111.7v203.6c0,9,7.3,16.3,16.3,16.3h512.1c9,0,16.3-7.3,16.3-16.3V675.7c0-9,7.3-16.3,16.3-16.3H816
		C825,659.4,832.3,666.7,832.3,675.7z"/>
</g>
</svg>
