<?xml version="1.0" encoding="utf-8"?>
<!-- Generator: Adobe Illustrator 24.3.0, SVG Export Plug-In . SVG Version: 6.00 Build 0)  -->
<svg version="1.1" id="Layer_1" xmlns="http://www.w3.org/2000/svg" xmlns:xlink="http://www.w3.org/1999/xlink" x="0px" y="0px"
	 viewBox="0 0 1080 1080" style="enable-background:new 0 0 1080 1080;" xml:space="preserve">
<style type="text/css">
	.st0{enable-background:new    ;}
	.st1{fill-rule:evenodd;clip-rule:evenodd;fill:none;stroke:#B82026;stroke-width:50;}
	.st2{fill:#B82026;}
	.st3{fill:#B82026;stroke:#B82026;stroke-width:0.75;}
</style>
<g class="st0">
	<path class="st1" d="M1534.7-273.7l-123.9-7.1c-9.5,0-21.4,7.1-23.8,16.7c-102.5,369.3,293.1,803,669.6,731.5
		c9.5-2.4,19.1-11.9,19.1-23.8l2.4-123.9c0-16.7-4.8-19.1-16.7-23.8l-178.7-62c-9.5-2.4-21.4,2.4-26.2,7.1l-62,45.3
		c-109.6-14.3-245.4-162-250.2-274l50-57.2c4.8-4.8,11.9-16.7,9.5-26.2l-45.3-183.5C1556.1-264.2,1551.4-271.3,1534.7-273.7z"/>
</g>
<desc>Created with Sketch.</desc>
<g>
	<g>
		<path class="st2" d="M-426.8,933.6V340.2h-52.4v157.5l-165.8-158.3l-218.2,208.2v385.9H-426.8z M-566.4,293.8v-40.8h226.9v257.4
			l108.7,103.7l-60.3,63.1l-48.4-46.2v389.9h-610.8V631l-48.4,46.2l-60.3-63.1l414.1-395.3L-566.4,293.8L-566.4,293.8z"/>
	</g>
</g>
<g>
	<g>
		<path class="st3" d="M3.9,2021.1v-593.4h-52.4v157.5L-214.3,1427l-218.2,208.2v385.9H3.9z M-135.7,1381.3v-40.8H91.1v257.4
			l108.7,103.7l-60.3,63.1l-48.4-46.2v389.9h-610.8v-389.9l-48.4,46.2l-60.3-63.1l414.1-395.3L-135.7,1381.3L-135.7,1381.3z"/>
	</g>
</g>
<path class="st2" d="M811.4,446.2V186.9H633.9v81.7L527.2,162l-43.4,43.4L252,437.2l-10.1,10.1L137.1,552.1l43.4,43.4l61.4-61.4V918
	h569.5V533.1l88.1,88.1l43.4-43.4L811.4,446.2z M750,856.6H303.3V472.8l223.9-223.9L695.3,417V248.3H750V856.6z"/>
<path class="st2" d="M2194.7,346.9V87.6h-177.5v81.7L1910.5,62.7l-43.4,43.4l-231.7,231.7l-10.1,10.1l-104.8,104.8l43.4,43.4
	l61.4-61.4v383.8h569.5V433.7l88.1,88.1l43.4-43.4L2194.7,346.9z M2133.3,757.3h-446.7V373.4l223.9-223.9l168.1,168.1V149h54.7
	V757.3z"/>
</svg>
